/* XPM */
static char * block_xpm[] = {
"48 48 10 1",
" 	c #C0D470",
".	c #5F7A79",
"+	c #97BB8E",
"@	c #AED499",
"#	c #C2E09A",
"$	c #A35B70",
"%	c #8A4A70",
"&	c #D99A9A",
"*	c #BD757E",
"=	c #6E967C",
"               ..................               ",
"               ..................               ",
"               ..................               ",
"         ......+++@@@######@@@+++......         ",
"         ......+++@@@######@@@+++......         ",
"         ......+++@@@######@@@+++......         ",
"      ...+++@@@@@@@@@######@@@@@@@@@+++...      ",
"      ...+++@@@@@@@@@######@@@@@@@@@+++...      ",
"      ...+++@@@@@@@@@######@@@@@@@@@+++...      ",
"   ...+++@@@######@@@@@@#########@@@@@@+++...   ",
"   ...+++@@@######@@@@@@#########@@@@@@+++...   ",
"   ...+++@@@######@@@@@@#########@@@@@@+++...   ",
"   ...@@@@@@######@@@@@@###$$$$$$$$$%%%+++...   ",
"   ...@@@@@@######@@@@@@###$$$$$$$$$%%%+++...   ",
"   ...@@@@@@######@@@@@@###$$$$$$$$$%%%+++...   ",
"...+++@@@@@@@@@@@@@@@@@@@@@$$$&&&***%%%@@@+++...",
"...+++@@@@@@@@@@@@@@@@@@@@@$$$&&&***%%%@@@+++...",
"...+++@@@@@@@@@@@@@@@@@@@@@$$$&&&***%%%@@@+++...",
"...++++++$$$$$$$$$%%%@@@@@@%%%******%%%++++++...",
"...++++++$$$$$$$$$%%%@@@@@@%%%******%%%++++++...",
"...++++++$$$$$$$$$%%%@@@@@@%%%******%%%++++++...",
"...++++++$$$&&&***%%%+++@@@+++%%%%%%++++++...###",
"...++++++$$$&&&***%%%+++@@@+++%%%%%%++++++...###",
"...++++++$$$&&&***%%%+++@@@+++%%%%%%++++++...###",
"###...+++%%%******%%%++++++++++++++++++++++++...",
"###...+++%%%******%%%++++++++++++++++++++++++...",
"###...+++%%%******%%%++++++++++++++++++++++++...",
"...===++++++%%%%%%++++++++++++++++++++++++===...",
"...===++++++%%%%%%++++++++++++++++++++++++===...",
"...===++++++%%%%%%++++++++++++++++++++++++===...",
"...======+++===+++===$$$$$$$$$%%%============...",
"...======+++===+++===$$$$$$$$$%%%============...",
"...======+++===+++===$$$$$$$$$%%%============...",
"...===============+++$$$&&&***%%%++++++======...",
"...===============+++$$$&&&***%%%++++++======...",
"...===============+++$$$&&&***%%%++++++======...",
"   ...===++++++======%%%******%%%=========...   ",
"   ...===++++++======%%%******%%%=========...   ",
"   ...===++++++======%%%******%%%=========...   ",
"      ==================%%%%%%============      ",
"      ==================%%%%%%============      ",
"      ==================%%%%%%============      ",
"            ========================            ",
"            ========================            ",
"            ========================            ",
"                                                ",
"                                                ",
"                                                "};
