/* XPM */
static char * collectable_xpm[] = {
"48 48 11 1",
" 	c #C0D470",
".	c #5F7A79",
"+	c #97BB8E",
"@	c #90625D",
"#	c #AED499",
"$	c #DCB98A",
"%	c #D1AB7D",
"&	c #C49A6C",
"*	c #B68962",
"=	c #7F575D",
"-	c #754C60",
"                                                ",
"                                                ",
"                                                ",
"                                                ",
"                                                ",
"                                                ",
"                              .........         ",
"                              .........         ",
"                              .........         ",
"                           ...++++++...         ",
"                           ...++++++...         ",
"                           ...++++++...         ",
"         @@@@@@@@@         ...###+++...         ",
"         @@@@@@@@@         ...###+++...         ",
"         @@@@@@@@@         ...###+++...         ",
"      @@@$$$$$$$$$@@@   @@@.........            ",
"      @@@$$$$$$$$$@@@   @@@.........            ",
"      @@@$$$$$$$$$@@@   @@@.........            ",
"      @@@$$$%%%$$$@@@@@@&&&***===               ",
"      @@@$$$%%%$$$@@@@@@&&&***===               ",
"      @@@$$$%%%$$$@@@@@@&&&***===               ",
"      ---$$$$$$$$$@@@&&&***===                  ",
"      ---$$$$$$$$$@@@&&&***===                  ",
"      ---$$$$$$$$$@@@&&&***===                  ",
"         ---@@@@@@***&&&&&&===                  ",
"         ---@@@@@@***&&&&&&===                  ",
"         ---@@@@@@***&&&&&&===                  ",
"            ---*********&&&&&&@@@               ",
"            ---*********&&&&&&@@@               ",
"            ---*********&&&&&&@@@               ",
"               ---*********&&&&&&@@@            ",
"               ---*********&&&&&&@@@            ",
"               ---*********&&&&&&@@@            ",
"                  ---*********&&&===            ",
"                  ---*********&&&===            ",
"                  ---*********&&&===            ",
"                     ---*********---            ",
"                     ---*********---            ",
"                     ---*********---            ",
"                        ---------               ",
"                        ---------               ",
"                        ---------               ",
"                                                ",
"                                                ",
"                                                ",
"                                                ",
"                                                ",
"                                                "};
