/* XPM */
static char * exit_xpm[] = {
"48 48 5 1",
" 	c #C0D470",
".	c #90625D",
"+	c #C49A6C",
"@	c #DCB98A",
"#	c #AA7959",
"                                                ",
"                                                ",
"                                                ",
"               ..................               ",
"               ..................               ",
"               ..................               ",
"            ...++++++++++++++++++...            ",
"            ...++++++++++++++++++...            ",
"            ...++++++++++++++++++...            ",
"         ...+++@@@@@@@@@@@@@@@@@@+++...         ",
"         ...+++@@@@@@@@@@@@@@@@@@+++...         ",
"         ...+++@@@@@@@@@@@@@@@@@@+++...         ",
"         ...@@@##################@@@...         ",
"         ...@@@##################@@@...         ",
"         ...@@@##################@@@...         ",
"         ...########################...         ",
"         ...########################...         ",
"         ...########################...         ",
"         ...########################...         ",
"         ...########################...         ",
"         ...########################...         ",
"         ...++++++++++++++++++++++++...         ",
"         ...++++++++++++++++++++++++...         ",
"         ...++++++++++++++++++++++++...         ",
"         ...++++++++++++++++++++++++...         ",
"         ...++++++++++++++++++++++++...         ",
"         ...++++++++++++++++++++++++...         ",
"         ...++++++++++++++++++++++++...         ",
"         ...++++++++++++++++++++++++...         ",
"         ...++++++++++++++++++++++++...         ",
"         ...++++++++++++++++++++++++...         ",
"         ...++++++++++++++++++++++++...         ",
"         ...++++++++++++++++++++++++...         ",
"         ...@@@@@@@@@@@@@@@@@@@@@@@@...         ",
"         ...@@@@@@@@@@@@@@@@@@@@@@@@...         ",
"         ...@@@@@@@@@@@@@@@@@@@@@@@@...         ",
"         ...#########......#########...         ",
"         ...#########......#########...         ",
"         ...#########......#########...         ",
"            .........      .........            ",
"            .........      .........            ",
"            .........      .........            ",
"                                                ",
"                                                ",
"                                                ",
"                                                ",
"                                                ",
"                                                "};
