/* XPM */
static char * floor3_xpm[] = {
"48 48 3 1",
" 	c #C0D470",
".	c #A4C263",
"+	c #FFFFFF",
"                                                ",
"                                                ",
"                                                ",
"                                                ",
"                                                ",
"                                                ",
"      ...   ...                                 ",
"      ...   ...                                 ",
"      ...   ...                                 ",
"         ...                                    ",
"         ...                                    ",
"         ...                                    ",
"                                                ",
"                                                ",
"                                                ",
"                                                ",
"                                                ",
"                                                ",
"                                                ",
"                                                ",
"                                                ",
"                                                ",
"                                                ",
"                                                ",
"                                                ",
"                                                ",
"                                                ",
"                              ...   ...         ",
"                              ...   ...         ",
"                              ...   ...         ",
"                                 ...            ",
"                                 ...            ",
"                                 ...            ",
"                                                ",
"                                                ",
"                                                ",
"                                                ",
"                                                ",
"                                                ",
"            ...   ...                           ",
"            ...   ...                           ",
"            ...   ...                           ",
"               ...                              ",
"               ...                              ",
"               ...                              ",
"                                                ",
"                                                ",
"                                                "};
