/* XPM */
static char * pj1_xpm[] = {
"48 48 5 1",
" 	c #C0D470",
".	c #5C4E92",
"+	c #F3F2C0",
"@	c #DDD5DE",
"#	c #766DAA",
"         .........            .........         ",
"         .........            .........         ",
"         .........            .........         ",
"      ...+++++++++...      ...+++++++++...      ",
"      ...+++++++++...      ...+++++++++...      ",
"      ...+++++++++...      ...+++++++++...      ",
"      ...+++++++++............+++++++++...      ",
"      ...+++++++++............+++++++++...      ",
"      ...+++++++++............+++++++++...      ",
"      ...+++++++++@@@@@@@@@@@@+++++++++...      ",
"      ...+++++++++@@@@@@@@@@@@+++++++++...      ",
"      ...+++++++++@@@@@@@@@@@@+++++++++...      ",
"      ...++++++++++++++++++++++++++++++...      ",
"      ...++++++++++++++++++++++++++++++...      ",
"      ...++++++++++++++++++++++++++++++...      ",
"      ...++++++++++++++++++++++++++++++...      ",
"      ...++++++++++++++++++++++++++++++...      ",
"      ...++++++++++++++++++++++++++++++...      ",
"   ......++++++++++++++++++++++++++++++......   ",
"   ......++++++++++++++++++++++++++++++......   ",
"   ......++++++++++++++++++++++++++++++......   ",
"      ...++++++++++++++++++++++++++++++...      ",
"      ...++++++++++++++++++++++++++++++...      ",
"      ...++++++++++++++++++++++++++++++...      ",
"   ......++++++++++++++++++++++++++++++......   ",
"   ......++++++++++++++++++++++++++++++......   ",
"   ......++++++++++++++++++++++++++++++......   ",
"      ...++++++++++++++++++++++++++++++...      ",
"      ...++++++++++++++++++++++++++++++...      ",
"      ...++++++++++++++++++++++++++++++...      ",
"         ......##################......         ",
"         ......##################......         ",
"         ......##################......         ",
"      ...@@@+++######......######+++@@@...      ",
"      ...@@@+++######......######+++@@@...      ",
"      ...@@@+++######......######+++@@@...      ",
"      ...@@@++++++...++++++...++++++@@@...      ",
"      ...@@@++++++...++++++...++++++@@@...      ",
"      ...@@@++++++...++++++...++++++@@@...      ",
"         ......++++++++++++++++++......         ",
"         ......++++++++++++++++++......         ",
"         ......++++++++++++++++++......         ",
"            ...@@@@@@......@@@@@@...            ",
"            ...@@@@@@......@@@@@@...            ",
"            ...@@@@@@......@@@@@@...            ",
"               ......      ......               ",
"               ......      ......               ",
"               ......      ......               "};
