/* XPM */
static char * pj2__xpm[] = {
"48 48 8 1",
" 	c #C0D470",
".	c #5C4E92",
"+	c #F3F2C0",
"@	c #E8B5AC",
"#	c #F3D8C5",
"$	c #766DAA",
"%	c #DDD5DE",
"&	c #EAE178",
"                  .........                     ",
"                  .........                     ",
"                  .........                     ",
"               ...+++++++++...                  ",
"               ...+++++++++...                  ",
"               ...+++++++++...                  ",
"            ...+++@@@@@@+++......               ",
"            ...+++@@@@@@+++......               ",
"            ...+++@@@@@@+++......               ",
"            ...+++@@@@@@+++++++++...            ",
"            ...+++@@@@@@+++++++++...            ",
"            ...+++@@@@@@+++++++++...            ",
"            ...++++++++++++++++++...            ",
"            ...++++++++++++++++++...            ",
"            ...++++++++++++++++++...            ",
"            ...++++++++++++++++++...            ",
"            ...++++++++++++++++++...            ",
"            ...++++++++++++++++++...            ",
"         ......++++++++++++++++++......         ",
"         ......++++++++++++++++++......         ",
"         ......++++++++++++++++++......         ",
"            ...++++++++++++...++++++...         ",
"            ...++++++++++++...++++++...         ",
"            ...++++++++++++...++++++...         ",
"         ......+++++++++++++++++++++...         ",
"         ......+++++++++++++++++++++...         ",
"         ......+++++++++++++++++++++...         ",
"            ...++++++######+++++++++...         ",
"            ...++++++######+++++++++...         ",
"            ...++++++######+++++++++...         ",
"               ...$$$$$$$$$$$$$$$...            ",
"               ...$$$$$$$$$$$$$$$...            ",
"               ...$$$$$$$$$$$$$$$...            ",
"            ...%%%+++$$$$$$$$$$$$&&&            ",
"            ...%%%+++$$$$$$$$$$$$&&&            ",
"            ...%%%+++$$$$$$$$$$$$&&&            ",
"            ...%%%++++++++++++...&&&            ",
"            ...%%%++++++++++++...&&&            ",
"            ...%%%++++++++++++...&&&            ",
"               ...++++++++++++...               ",
"               ...++++++++++++...               ",
"               ...++++++++++++...               ",
"                  ...%%%%%%...                  ",
"                  ...%%%%%%...                  ",
"                  ...%%%%%%...                  ",
"                     ......                     ",
"                     ......                     ",
"                     ......                     "};
