/* XPM */
static char * pj4_xpm[] = {
"48 48 8 1",
" 	c #C0D470",
".	c #5C4E92",
"+	c #F3F2C0",
"@	c #E8B5AC",
"#	c #F3D8C5",
"$	c #766DAA",
"%	c #EAE178",
"&	c #DDD5DE",
"                     .........                  ",
"                     .........                  ",
"                     .........                  ",
"                  ...+++++++++...               ",
"                  ...+++++++++...               ",
"                  ...+++++++++...               ",
"               ......+++@@@@@@+++...            ",
"               ......+++@@@@@@+++...            ",
"               ......+++@@@@@@+++...            ",
"            ...+++++++++@@@@@@+++...            ",
"            ...+++++++++@@@@@@+++...            ",
"            ...+++++++++@@@@@@+++...            ",
"            ...++++++++++++++++++...            ",
"            ...++++++++++++++++++...            ",
"            ...++++++++++++++++++...            ",
"            ...++++++++++++++++++...            ",
"            ...++++++++++++++++++...            ",
"            ...++++++++++++++++++...            ",
"         ......++++++++++++++++++......         ",
"         ......++++++++++++++++++......         ",
"         ......++++++++++++++++++......         ",
"         ...++++++...++++++++++++...            ",
"         ...++++++...++++++++++++...            ",
"         ...++++++...++++++++++++...            ",
"         ...+++++++++++++++++++++......         ",
"         ...+++++++++++++++++++++......         ",
"         ...+++++++++++++++++++++......         ",
"         ...+++++++++######++++++...            ",
"         ...+++++++++######++++++...            ",
"         ...+++++++++######++++++...            ",
"            ...$$$$$$$$$$$$$$$...               ",
"            ...$$$$$$$$$$$$$$$...               ",
"            ...$$$$$$$$$$$$$$$...               ",
"            %%%$$$$$$$$$$$$+++&&&...            ",
"            %%%$$$$$$$$$$$$+++&&&...            ",
"            %%%$$$$$$$$$$$$+++&&&...            ",
"            %%%...++++++++++++&&&...            ",
"            %%%...++++++++++++&&&...            ",
"            %%%...++++++++++++&&&...            ",
"               ...++++++++++++...               ",
"               ...++++++++++++...               ",
"               ...++++++++++++...               ",
"                  ...&&&&&&...                  ",
"                  ...&&&&&&...                  ",
"                  ...&&&&&&...                  ",
"                     ......                     ",
"                     ......                     ",
"                     ......                     "};
