/* XPM */
static char *d09ab6746de146caac367255ed1a489a9KQ2wJKqEtQzi2wi[] = {
/* columns rows colors chars-per-pixel */
"16 16 2 1 ",
"  c #51AC69",
". c #63C74D",
/* pixels */
"................",
"................",
"..........  ....",
".........    ...",
".........    ...",
"..........  ....",
"................",
"................",
"....   .........",
"...     ........",
"...     ....  ..",
"...     ....  ..",
"....   .........",
"................",
"................",
"................"
};
