/* XPM */
static const char *sprite1[] = {
/* columns rows colors chars-per-pixel */
"128 128 2 1 ",
"  c #51AC69",
". c #63C74D",
/* pixels */
"................................................................................................................................",
"................................................................................................................................",
"................................................................................................................................",
"................................................................................................................................",
"................................................................................................................................",
"................................................................................................................................",
"................................................................................................................................",
"................................................................................................................................",
"................................................................................................................................",
"................................................................................................................................",
"................................................................................................................................",
"................................................................................................................................",
"................................................................................................................................",
"................................................................................................................................",
"................................................................................................................................",
"................................................................................................................................",
"................................................................................                ................................",
"................................................................................                ................................",
"................................................................................                ................................",
"................................................................................                ................................",
"................................................................................                ................................",
"................................................................................                ................................",
"................................................................................                ................................",
"................................................................................                ................................",
"........................................................................                                ........................",
"........................................................................                                ........................",
"........................................................................                                ........................",
"........................................................................                                ........................",
"........................................................................                                ........................",
"........................................................................                                ........................",
"........................................................................                                ........................",
"........................................................................                                ........................",
"........................................................................                                ........................",
"........................................................................                                ........................",
"........................................................................                                ........................",
"........................................................................                                ........................",
"........................................................................                                ........................",
"........................................................................                                ........................",
"........................................................................                                ........................",
"........................................................................                                ........................",
"................................................................................                ................................",
"................................................................................                ................................",
"................................................................................                ................................",
"................................................................................                ................................",
"................................................................................                ................................",
"................................................................................                ................................",
"................................................................................                ................................",
"................................................................................                ................................",
"................................................................................................................................",
"................................................................................................................................",
"................................................................................................................................",
"................................................................................................................................",
"................................................................................................................................",
"................................................................................................................................",
"................................................................................................................................",
"................................................................................................................................",
"................................................................................................................................",
"................................................................................................................................",
"................................................................................................................................",
"................................................................................................................................",
"................................................................................................................................",
"................................................................................................................................",
"................................................................................................................................",
"................................................................................................................................",
"................................                        ........................................................................",
"................................                        ........................................................................",
"................................                        ........................................................................",
"................................                        ........................................................................",
"................................                        ........................................................................",
"................................                        ........................................................................",
"................................                        ........................................................................",
"................................                        ........................................................................",
"........................                                        ................................................................",
"........................                                        ................................................................",
"........................                                        ................................................................",
"........................                                        ................................................................",
"........................                                        ................................................................",
"........................                                        ................................................................",
"........................                                        ................................................................",
"........................                                        ................................................................",
"........................                                        ................................                ................",
"........................                                        ................................                ................",
"........................                                        ................................                ................",
"........................                                        ................................                ................",
"........................                                        ................................                ................",
"........................                                        ................................                ................",
"........................                                        ................................                ................",
"........................                                        ................................                ................",
"........................                                        ................................                ................",
"........................                                        ................................                ................",
"........................                                        ................................                ................",
"........................                                        ................................                ................",
"........................                                        ................................                ................",
"........................                                        ................................                ................",
"........................                                        ................................                ................",
"........................                                        ................................                ................",
"................................                        ........................................................................",
"................................                        ........................................................................",
"................................                        ........................................................................",
"................................                        ........................................................................",
"................................                        ........................................................................",
"................................                        ........................................................................",
"................................                        ........................................................................",
"................................                        ........................................................................",
"................................................................................................................................",
"................................................................................................................................",
"................................................................................................................................",
"................................................................................................................................",
"................................................................................................................................",
"................................................................................................................................",
"................................................................................................................................",
"................................................................................................................................",
"................................................................................................................................",
"................................................................................................................................",
"................................................................................................................................",
"................................................................................................................................",
"................................................................................................................................",
"................................................................................................................................",
"................................................................................................................................",
"................................................................................................................................",
"................................................................................................................................",
"................................................................................................................................",
"................................................................................................................................",
"................................................................................................................................",
"................................................................................................................................",
"................................................................................................................................",
"................................................................................................................................",
"................................................................................................................................"
};
